<svg xmlns="http://www.w3.org/2000/svg" viewBox="0 0 211.04 66.73"><defs><style>.cls-1{stroke:#1d1d1b;stroke-miterlimit:10;stroke-width:0.5px;}.cls-2{font-size:10px;font-family:Poppins-Regular, Poppins;letter-spacing:0.38em;}.cls-2,.cls-4{fill:#1d1d1b;}.cls-3{fill:#010101;}</style></defs><g id="Calque_7" data-name="Calque 7"><line class="cls-1" x1="0.71" y1="61.29" x2="57.4" y2="61.29"/><line class="cls-1" x1="153.01" y1="61.49" x2="209.71" y2="61.3"/></g><g id="Calque_8" data-name="Calque 8"><text class="cls-2" transform="translate(61.56 62.78)">Since 1989</text></g><g id="Calque_5" data-name="Calque 5"><g id="Calque_2-2" data-name="Calque 2"><path class="cls-3" d="M34.44,16.32l-6.58,1.21a16.35,16.35,0,0,0,.41-3.27q0-8.49-10.32-8.49-8.13,0-8.14,5.87,0,4.41,9.12,7.55,17.58,6,17.57,17.89a13.91,13.91,0,0,1-4.93,11.15q-4.93,4.2-13.12,4.2Q.33,52.43.33,38.33A21.75,21.75,0,0,1,.47,35.5L7.3,34a23.7,23.7,0,0,0-.76,5.43q0,9.11,10.4,9.11,8.34,0,8.34-6.55,0-4.86-10-8.55Q.91,28.15.9,16.51A13.16,13.16,0,0,1,5.71,5.9q4.8-4,12.64-4,16.09,0,16.09,14.44"/></g><path class="cls-4" d="M191.74,41.74h-7L182,51.52H169.66l12.07-45,6.53,23-1.35,4.82h2.77Zm18.36,9.78H197.68l-14-48.88H197Z"/><polyline class="cls-3" points="73.75 2.64 73.75 7.56 56.22 7.56 56.22 22.4 70.87 22.4 70.87 27.31 56.22 27.31 56.22 46.6 76.72 46.6 76.72 51.52 42.03 51.52 42.03 2.64 73.75 2.64"/><polyline class="cls-3" points="127.1 2.64 127.1 51.52 113.47 51.52 113.47 17.52 103.92 51.52 95.99 51.52 86.2 18.09 86.2 51.52 81.47 51.52 81.47 2.64 95.85 2.64 104.24 32.16 112.6 2.64 127.1 2.64"/><path class="cls-3" d="M146.06,27h3.18Q157,27,157,16.79q0-9.6-7.76-9.61h-3.18V27m-14.2,24.49V2.64H153q17.94,0,17.94,14.4T151,31.58h-4.9V51.52Z"/></g></svg>